<svg width="104" height="104" viewBox="0 0 104 104" fill="none" xmlns="http://www.w3.org/2000/svg">
    <style>
        path {
            fill: #DACFBC ;
        }
        @media (prefers-color-scheme: dark) {
            path { fill: #88949D; }
        }
    </style>
<path fill-rule="evenodd" clip-rule="evenodd" d="M0 0H104V104H0V0ZM52 27C47.0555 27 42.222 28.4662 38.1108 31.2133C33.9995 33.9603 30.7952 37.8648 28.903 42.4329C27.0108 47.001 26.5157 52.0278 27.4804 56.8772C28.445 61.7267 30.826 66.1814 34.3223 69.6776C37.8187 73.1739 42.2732 75.555 47.1227 76.5196C51.9724 77.4842 56.9989 76.9892 61.567 75.0969C66.1353 73.2048 70.0398 70.0006 72.7868 65.8893C75.5338 61.7781 76.9999 56.9444 76.9999 52C76.9999 45.3695 74.3661 39.0107 69.6778 34.3223C64.9892 29.6339 58.6304 27 52 27ZM52 73.1539C47.8163 73.1539 43.7263 71.9132 40.2476 69.5888C36.7688 67.2643 34.0575 63.9605 32.4564 60.0953C30.8553 56.2298 30.4364 51.9765 31.2526 47.8731C32.0689 43.7696 34.0836 40.0004 37.042 37.042C40.0004 34.0836 43.7697 32.0688 47.8731 31.2526C51.9765 30.4364 56.2298 30.8553 60.0953 32.4564C63.9605 34.0575 67.2643 36.7688 69.5888 40.2476C71.9132 43.7263 73.1539 47.8161 73.1539 52C73.1539 57.6104 70.9252 62.9908 66.958 66.958C62.9908 70.9252 57.6104 73.1539 52 73.1539ZM42.6081 51.9199C42.3738 51.8223 42.1611 51.6792 41.9823 51.499L37.4631 46.9798C36.5827 46.1273 36.0376 44.9871 35.927 43.7667C35.8164 42.5462 36.1475 41.3266 36.8603 40.3297C37.573 39.3328 38.6199 38.625 39.8105 38.3348C41.0011 38.0447 42.2563 38.1917 43.3477 38.7489C44.4374 38.2241 45.6776 38.1007 46.8492 38.4007C48.0211 38.7007 49.0493 39.4047 49.7528 40.3886C50.4562 41.3726 50.7897 42.5733 50.6945 43.7791C50.5993 44.9849 50.0814 46.1184 49.2324 46.9798L44.7131 51.499C44.5343 51.6792 44.3216 51.8223 44.0873 51.9199C43.8529 52.0176 43.6016 52.0678 43.3477 52.0678C43.0938 52.0678 42.8425 52.0176 42.6081 51.9199ZM40.587 42.0977C40.4316 42.1642 40.2913 42.2614 40.1746 42.3836V42.499C40.0525 42.6157 39.9552 42.7559 39.8888 42.9113C39.8223 43.0666 39.7881 43.2338 39.7881 43.4028C39.7881 43.5718 39.8223 43.739 39.8888 43.8943C39.9552 44.0497 40.0525 44.1899 40.1746 44.3067L43.3477 47.4221L46.5208 44.1913C46.6429 44.0746 46.7402 43.9343 46.8067 43.7789C46.873 43.6236 46.9074 43.4564 46.9074 43.2874C46.9074 43.1185 46.873 42.9513 46.8067 42.7959C46.7402 42.6406 46.6429 42.5003 46.5208 42.3836C46.4027 42.2638 46.2619 42.1687 46.1068 42.1038C45.9517 42.0388 45.7851 42.0054 45.6169 42.0054C45.4487 42.0054 45.2823 42.0388 45.1271 42.1038C44.9719 42.1687 44.8312 42.2638 44.7131 42.3836C44.5343 42.5638 44.3216 42.7069 44.0873 42.8045C43.8529 42.9022 43.6016 42.9524 43.3477 42.9524C43.0938 42.9524 42.8425 42.9022 42.6081 42.8045C42.3738 42.7069 42.1611 42.5638 41.9823 42.3836C41.8656 42.2614 41.7253 42.1642 41.57 42.0977C41.4146 42.0313 41.2474 41.997 41.0785 41.997C40.9095 41.997 40.7423 42.0313 40.587 42.0977ZM59.2888 51.499C59.4675 51.6792 59.6803 51.8223 59.9146 51.9199C60.1489 52.0176 60.4003 52.0678 60.6541 52.0678C60.9081 52.0678 61.1595 52.0176 61.3938 51.9199C61.6281 51.8223 61.8407 51.6792 62.0196 51.499L66.5388 46.9798C67.3879 46.1184 67.9058 44.9849 68.001 43.7791C68.0962 42.5733 67.7626 41.3726 67.0593 40.3886C66.3557 39.4047 65.3276 38.7007 64.1557 38.4007C62.984 38.1007 61.7439 38.2241 60.6541 38.7489C59.5627 38.1917 58.3075 38.0447 57.1169 38.3348C55.9263 38.625 54.8795 39.3328 54.1666 40.3297C53.454 41.3266 53.1229 42.5462 53.2335 43.7667C53.3441 44.9871 53.8893 46.1273 54.7696 46.9798L59.2888 51.499ZM57.4811 42.3836C57.5978 42.2614 57.738 42.1642 57.8935 42.0977C58.0488 42.0313 58.2159 41.997 58.3849 41.997C58.5538 41.997 58.7211 42.0313 58.8764 42.0977C59.0317 42.1642 59.172 42.2614 59.2888 42.3836C59.4675 42.5638 59.6803 42.7069 59.9146 42.8045C60.1489 42.9022 60.4003 42.9524 60.6541 42.9524C60.9081 42.9524 61.1595 42.9022 61.3938 42.8045C61.6281 42.7069 61.8407 42.5638 62.0196 42.3836C62.1377 42.2638 62.2783 42.1687 62.4334 42.1038C62.5887 42.0388 62.7551 42.0054 62.9233 42.0054C63.0916 42.0054 63.2581 42.0388 63.4133 42.1038C63.5684 42.1687 63.7092 42.2638 63.8273 42.3836C63.9493 42.5003 64.0467 42.6406 64.113 42.7959C64.1795 42.9513 64.2138 43.1185 64.2138 43.2874C64.2138 43.4564 64.1795 43.6236 64.113 43.7789C64.0467 43.9343 63.9493 44.0746 63.8273 44.1913L60.6541 47.4221L57.4811 44.3067C57.3589 44.1899 57.2617 44.0497 57.1952 43.8943C57.1287 43.739 57.0946 43.5718 57.0946 43.4028C57.0946 43.2338 57.1287 43.0666 57.1952 42.9113C57.2617 42.7559 57.3589 42.6157 57.4811 42.499V42.3836ZM64.1017 54.4853C64.4625 54.1247 64.9515 53.922 65.4616 53.922C65.9717 53.922 66.4609 54.1247 66.8215 54.4853C67.1821 54.8459 67.3848 55.3351 67.3848 55.8452C67.3848 63.2681 60.4808 69.3067 52 69.3067C43.5193 69.3067 36.6155 63.2681 36.6155 55.8452C36.6155 55.3351 36.8181 54.8459 37.1787 54.4853C37.5394 54.1247 38.0285 53.922 38.5386 53.922C39.0486 53.922 39.5377 54.1247 39.8984 54.4853C40.259 54.8459 40.4616 55.3351 40.4616 55.8452C40.4616 61.1528 45.6347 65.4605 52 65.4605C58.3654 65.4605 63.5386 61.1528 63.5386 55.8452C63.5386 55.3351 63.7412 54.8459 64.1017 54.4853Z" fill="#DACFBC"/>
</svg>
