<svg width="42" height="50" viewBox="0 0 42 50" fill="none" xmlns="http://www.w3.org/2000/svg">
<path d="M34.6264 26.449C34.6264 22.3198 36.501 19.3066 40.1401 16.963C38.0449 13.9499 34.9572 12.3875 30.877 12.0527C26.9071 11.7179 22.6064 14.2847 21.0625 14.2847C19.4084 14.2847 15.6591 12.1643 12.6816 12.1643C6.50623 12.2759 0 17.0746 0 27.007C0 29.9085 0.4411 32.9217 1.54385 36.0465C2.97743 40.1756 8.05008 50.2195 13.3433 49.9963C16.1002 49.9963 18.0851 47.9876 21.7242 47.9876C25.253 47.9876 27.0174 49.9963 30.1051 49.9963C35.5086 49.9963 40.1401 40.8452 41.4634 36.7161C34.2955 33.2565 34.6264 26.6722 34.6264 26.449ZM28.451 8.14672C31.4284 4.57556 31.0976 1.22759 31.0976 0C28.451 0.223198 25.3633 1.89718 23.5989 3.90596C21.6139 6.13794 20.5112 8.92792 20.7317 11.9411C23.5989 12.1643 26.2455 10.7135 28.451 8.14672Z" fill="white"/>
</svg>
