<svg width="104" height="104" viewBox="0 0 104 104" fill="none" xmlns="http://www.w3.org/2000/svg">
   <style>
        path {
            fill: #DACFBC ;
        }
        @media (prefers-color-scheme: dark) {
            path { fill: #88949D; }
        }
    </style>
<path fill-rule="evenodd" clip-rule="evenodd" d="M104 0H0V104H104V0ZM36.5 39.3333C36.5 35.5594 39.5593 32.5 43.3334 32.5H50.1666V46.1667H43.3334C39.5593 46.1667 36.5 43.1073 36.5 39.3333ZM53.1666 46.1667V32.5H60C63.774 32.5 66.8334 35.5594 66.8334 39.3333C66.8334 43.1073 63.774 46.1667 60 46.1667H53.1666ZM69.8334 39.3333C69.8334 42.8453 67.9923 45.9272 65.2227 47.6667C67.9923 49.4061 69.8334 52.488 69.8334 56C69.8334 61.4308 65.4309 65.8333 60 65.8333C57.3451 65.8333 54.9359 64.7812 53.1666 63.0711V72.6667C53.1666 78.0976 48.7642 82.5 43.3334 82.5C37.9026 82.5 33.5 78.0976 33.5 72.6667C33.5 69.1547 35.3411 66.0728 38.1107 64.3333C35.3411 62.5939 33.5 59.512 33.5 56C33.5 52.488 35.3411 49.4061 38.1107 47.6667C35.3411 45.9272 33.5 42.8453 33.5 39.3333C33.5 33.9025 37.9026 29.5 43.3334 29.5H60C65.4309 29.5 69.8334 33.9025 69.8334 39.3333ZM60 62.8333C56.2261 62.8333 53.1666 59.7739 53.1666 56C53.1666 52.2261 56.2261 49.1667 60 49.1667C63.774 49.1667 66.8334 52.226 66.8334 56C66.8334 59.774 63.774 62.8333 60 62.8333ZM43.3334 49.1667H50.1666V62.8333H43.3334C39.5593 62.8333 36.5 59.7739 36.5 56C36.5 52.2261 39.5593 49.1667 43.3334 49.1667ZM43.3334 65.8333H50.1666V72.6667C50.1666 76.4407 47.1073 79.5 43.3334 79.5C39.5593 79.5 36.5 76.4407 36.5 72.6667C36.5 68.8926 39.5593 65.8333 43.3334 65.8333Z"/>
</svg>
