<svg width="188" height="40" viewBox="0 0 188 40" fill="none" xmlns="http://www.w3.org/2000/svg">
<path d="M23.3548 19.8766V29.3829C23.3548 30.0002 23.0894 30.494 22.6913 30.8644C22.2932 31.2347 21.7624 31.4816 21.0989 31.4816C20.4354 31.4816 19.9046 31.2347 19.5065 30.8644C19.1085 30.494 18.8431 30.0002 18.8431 29.3829V19.7532C18.8431 18.7655 18.7104 17.9013 18.3123 17.0371C17.9142 16.1729 17.5161 15.4322 16.8526 14.8149C16.1891 14.1976 15.5256 13.7038 14.7294 13.3334C13.9332 12.963 12.8717 12.8396 11.8101 12.8396C10.7485 12.8396 9.81962 12.963 9.02344 13.3334C8.09455 13.7038 7.43106 14.0741 6.76758 14.6914C6.10409 15.3087 5.5733 15.926 5.17521 16.7902C4.77711 17.6544 4.51172 18.5186 4.51172 19.3828V29.5063C4.51172 29.7532 4.51172 30.1236 4.37902 30.3705C4.24632 30.6174 4.11363 30.8644 3.84823 30.9878C3.58283 31.2347 3.45014 31.3582 3.18474 31.4816C2.91935 31.6051 2.65395 31.6051 2.25586 31.6051C1.99046 31.6051 1.59237 31.6051 1.32698 31.4816C1.06158 31.3582 0.796185 31.2347 0.663488 30.9878C0.398093 30.7409 0.265395 30.6174 0.132698 30.3705C0 30.0002 0 29.7532 0 29.5063V2.09878C0 1.85186 0 1.48149 0.132698 1.23457C0.265395 0.987659 0.398093 0.740745 0.663488 0.49383C0.928883 0.246915 1.06158 0.123457 1.32698 0C1.72507 0 1.99046 0 2.25586 0C2.91935 0 3.45014 0.246915 3.84823 0.617287C4.24632 0.987659 4.51172 1.60495 4.51172 2.09878V11.3581C5.5733 10.4939 6.63488 9.87659 7.96185 9.25931C9.15613 8.76548 10.4831 8.51856 11.9428 8.51856C13.6679 8.51856 15.1275 8.76548 16.5872 9.38276C18.0469 10.0001 19.2411 10.7408 20.17 11.8519C21.2316 12.8396 22.0278 14.0741 22.5586 15.4322C23.0894 16.7902 23.3548 18.2717 23.3548 19.7532V19.8766Z" fill="white"/>
<path d="M33.1748 20.6172C33.1748 21.6048 33.3075 22.469 33.7056 23.3332C34.1037 24.1974 34.6345 24.9382 35.298 25.5555C35.9615 26.1728 36.7576 26.6666 37.6865 27.037C38.6154 27.4073 39.5443 27.5308 40.6059 27.5308C41.6675 27.5308 42.5963 27.4073 43.5252 27.037C44.4541 26.6666 45.2503 26.1728 45.9138 25.5555C46.5773 24.9382 47.1081 24.1974 47.5061 23.3332C47.9042 22.469 48.1696 21.6048 48.1696 20.6172V20.4937V10.864C48.1696 10.6171 48.1696 10.2467 48.3023 9.99983C48.435 9.75292 48.5677 9.506 48.8331 9.38255C49.0985 9.13563 49.2312 9.01217 49.6293 8.88872C49.8947 8.76526 50.1601 8.76526 50.5582 8.76526C51.2217 8.76526 51.7525 9.01217 52.1506 9.38255C52.5487 9.75292 52.8141 10.2467 52.8141 10.864V20.3703V20.4937V20.6172C52.8141 21.9752 52.5487 23.3332 52.0179 24.5678C51.4871 25.8024 50.8236 26.9135 49.8947 27.9012C48.9658 28.8888 48.0369 29.753 46.71 30.3703C45.5157 30.9876 44.1887 31.4814 42.8617 31.7283V37.7778C42.8617 38.0247 42.8617 38.395 42.729 38.642C42.5963 38.8889 42.4636 39.1358 42.1982 39.3827C41.9328 39.6296 41.8002 39.7531 41.5348 39.8765C41.2694 40 41.004 40 40.6059 40C39.9424 40 39.4116 39.7531 39.0135 39.3827C38.6154 39.0123 38.35 38.3951 38.35 37.9012V31.8518C36.8903 31.6049 35.6961 31.1111 34.5018 30.4938C33.3075 29.8765 32.2459 29.0123 31.4497 28.0246C30.5209 27.037 29.8574 25.9258 29.4593 24.6913C28.9285 23.4567 28.6631 22.2221 28.6631 20.7406V10.864C28.6631 10.2467 28.9285 9.75292 29.3266 9.38255C29.7247 9.01217 30.2555 8.76526 30.9189 8.76526C31.1843 8.76526 31.5824 8.76526 31.8478 8.88872C32.1132 9.01217 32.3786 9.13563 32.5113 9.38255C32.7767 9.62946 32.9094 9.75292 33.0421 9.99983C33.0421 10.3702 33.1748 10.6171 33.1748 10.864V20.6172Z" fill="white"/>
<path d="M57.7234 20.1243C57.7234 18.5193 57.9888 17.0379 58.6523 15.5564C59.3158 14.0749 60.2447 12.8403 61.3062 11.8526C62.5005 10.7415 63.8275 10.0008 65.2872 9.38349C66.8795 8.7662 68.4719 8.51929 70.197 8.51929C71.922 8.51929 73.5144 8.7662 75.1068 9.38349C76.5664 10.0008 77.8934 10.865 79.0877 11.8526C80.282 12.9638 81.0782 14.1983 81.7417 15.5564C82.4051 17.0379 82.6705 18.5193 82.6705 20.1243C82.6705 21.7292 82.4051 23.2107 81.7417 24.6922C81.0782 26.0502 80.1493 27.2848 79.0877 28.3959C77.8934 29.5071 76.5664 30.2478 75.1068 30.8651C73.6471 31.4824 71.922 31.7293 70.197 31.7293C68.6046 31.7293 67.1449 31.4824 65.8179 30.9885C64.491 30.4947 63.2967 29.8774 62.1024 29.0132V37.5318C62.1024 38.1491 61.837 38.6429 61.4389 39.1367C61.0408 39.5071 60.51 39.754 59.8466 39.754C59.5812 39.754 59.1831 39.754 58.9177 39.6306C58.6523 39.5071 58.3869 39.3837 58.1215 39.1367C57.8561 38.8898 57.7234 38.7664 57.5907 38.396C57.458 38.1491 57.458 37.7787 57.458 37.5318V20.1243H57.7234ZM62.2351 20.1243C62.2351 21.1119 62.5005 22.0996 62.8986 22.9638C63.2967 23.828 63.8275 24.6922 64.6237 25.3095C65.2872 25.9268 66.216 26.5441 67.1449 26.9144C68.0738 27.2848 69.1354 27.5317 70.3297 27.5317C71.3912 27.5317 72.4528 27.2848 73.5144 26.9144C74.4433 26.5441 75.3722 25.9268 76.0357 25.3095C76.6991 24.6922 77.3626 23.828 77.7607 22.9638C78.1588 22.0996 78.4242 21.1119 78.4242 20.1243C78.4242 19.1366 78.1588 18.149 77.7607 17.1613C77.3626 16.2971 76.8318 15.4329 76.0357 14.8156C75.3722 14.1983 74.4433 13.581 73.5144 13.2107C72.5855 12.8403 71.5239 12.5934 70.3297 12.5934C69.2681 12.5934 68.2065 12.8403 67.1449 13.2107C66.216 13.581 65.2872 14.0749 64.6237 14.8156C63.9602 15.4329 63.2967 16.2971 62.8986 17.1613C62.5005 18.149 62.2351 19.1366 62.2351 20.1243Z" fill="white"/>
<path d="M90.4988 22.0997C90.6315 22.9639 91.0296 23.7046 91.4277 24.3219C91.9585 24.9392 92.4893 25.5565 93.1527 26.0503C93.8162 26.5442 94.6124 26.9145 95.4086 27.1614C96.2048 27.4084 97.1337 27.5318 98.0626 27.5318C99.1241 27.5318 100.186 27.4084 101.115 27.038C102.043 26.6676 102.84 26.1738 103.503 25.5565C103.901 25.3096 104.299 25.0627 104.697 25.0627C105.096 25.0627 105.494 25.0627 105.759 25.1861C106.024 25.3096 106.157 25.433 106.423 25.5565C106.555 25.6799 106.821 25.9269 106.953 26.0503C107.219 26.4207 107.351 26.9145 107.351 27.4084C107.351 27.9022 107.086 28.396 106.555 28.8898C106.157 29.2602 105.626 29.6306 105.096 30.001C104.565 30.3713 103.901 30.6182 103.238 30.9886C102.574 31.2355 101.778 31.4824 100.982 31.6059C100.186 31.7294 99.2568 31.8528 98.1953 31.8528C96.4702 31.8528 94.8778 31.6059 93.2855 30.9886C91.6931 30.3713 90.3661 29.5071 89.3045 28.5195C88.1102 27.4084 87.3141 26.1738 86.6506 24.8157C85.9871 23.3343 85.7217 21.8528 85.7217 20.2478C85.7217 18.6429 85.9871 17.1614 86.6506 15.6799C87.3141 14.1984 88.2429 12.9638 89.3045 11.9762C90.4988 10.8651 91.8258 10.1243 93.2855 9.50702C94.8778 8.88974 96.4702 8.64282 98.1953 8.64282C99.9203 8.64282 101.513 8.88974 103.105 9.50702C104.565 10.1243 105.892 10.9885 107.086 11.9762C108.28 12.9638 109.076 14.1984 109.873 15.6799C110.536 17.0379 110.934 18.6429 110.934 20.2478C110.934 20.8651 110.669 21.3589 110.271 21.7293C109.873 22.0997 109.342 22.3466 108.678 22.3466H90.4988V22.0997ZM105.892 18.5194C105.759 17.6552 105.361 16.9145 104.963 16.1737C104.432 15.433 103.901 14.8157 103.238 14.3219C102.574 13.828 101.778 13.4577 100.849 13.0873C99.9203 12.8404 98.9914 12.7169 98.0626 12.7169C97.1337 12.7169 96.0721 12.8404 95.2759 13.2107C94.347 13.4577 93.6835 13.9515 92.8874 14.4453C92.2239 14.9392 91.6931 15.5564 91.1623 16.2972C90.7642 17.0379 90.3661 17.7787 90.2334 18.6429H105.892V18.5194Z" fill="white"/>
<path d="M127.388 13.0865C126.194 13.0865 125.132 13.3334 124.071 13.7038C123.009 14.0741 122.08 14.6914 121.417 15.4322C120.62 16.1729 120.09 17.0371 119.559 18.0248C119.161 19.0124 118.895 20.0001 118.895 21.1112V29.5063C118.895 30.1236 118.63 30.6174 118.232 30.9878C117.834 31.3582 117.303 31.6051 116.64 31.6051C115.976 31.6051 115.445 31.3582 114.914 30.9878C114.516 30.6174 114.251 30.1236 114.251 29.5063V20.9877C114.251 19.2593 114.649 17.7779 115.313 16.2964C115.976 14.8149 116.905 13.5803 118.099 12.4692C119.293 11.3581 120.62 10.4939 122.213 9.87658C123.805 9.25929 125.53 8.88892 127.255 8.88892H127.388C128.184 8.88892 128.715 9.13583 129.113 9.5062C129.511 9.87658 129.777 10.3704 129.777 10.9877C129.777 11.605 129.511 12.0988 129.113 12.4692C128.715 12.8396 128.184 13.0865 127.388 13.0865Z" fill="white"/>
<path d="M130.973 20.1243C130.973 18.5193 131.239 17.0379 131.902 15.5564C132.566 14.0749 133.494 12.8403 134.556 11.8526C135.75 10.7415 137.077 10.0008 138.537 9.38349C140.129 8.7662 141.722 8.51929 143.447 8.51929C145.172 8.51929 146.764 8.7662 148.357 9.38349C149.816 10.0008 151.143 10.865 152.337 11.8526C153.532 12.8403 154.328 14.0749 154.991 15.5564C155.655 16.9144 156.053 18.5193 156.053 20.1243V20.2477V29.5071C156.053 30.1243 155.788 30.6182 155.39 31.112C154.991 31.6058 154.328 31.7293 153.664 31.7293C153.001 31.7293 152.47 31.4824 152.072 31.112C151.674 30.7416 151.409 30.1243 151.409 29.5071V29.0132C150.347 29.8774 149.153 30.6182 147.826 31.2355C146.499 31.7293 145.039 32.0997 143.579 32.0997C141.854 32.0997 140.262 31.8527 138.67 31.2355C137.077 30.6182 135.75 29.754 134.689 28.7663C133.494 27.6552 132.698 26.4206 132.035 25.0626C131.239 23.3342 130.973 21.8527 130.973 20.1243ZM135.485 20.1243C135.485 21.1119 135.75 22.0996 136.148 22.9638C136.546 23.828 137.077 24.6922 137.873 25.3095C138.537 25.9268 139.466 26.5441 140.395 26.9144C141.324 27.2848 142.385 27.5317 143.579 27.5317C144.641 27.5317 145.703 27.2848 146.764 26.9144C147.693 26.5441 148.622 25.9268 149.285 25.3095C149.949 24.6922 150.612 23.828 151.011 22.9638C151.409 22.0996 151.674 21.1119 151.674 20.1243C151.674 19.1366 151.409 18.149 151.011 17.1613C150.612 16.2971 150.082 15.4329 149.285 14.8156C148.622 14.1983 147.693 13.581 146.764 13.2107C145.835 12.8403 144.774 12.5934 143.579 12.5934C142.518 12.5934 141.456 12.8403 140.395 13.2107C139.466 13.581 138.537 14.0749 137.873 14.8156C137.21 15.4329 136.546 16.2971 136.148 17.1613C135.618 18.149 135.485 19.1366 135.485 20.1243Z" fill="white"/>
<path d="M161.628 3.57999C161.628 2.83924 161.894 2.34541 162.425 1.85158C162.955 1.35775 163.486 1.11084 164.282 1.11084C165.079 1.11084 165.609 1.35775 166.14 1.85158C166.671 2.34541 166.936 2.83924 166.936 3.57999C166.936 3.95036 166.936 4.19728 166.804 4.44419C166.671 4.69111 166.538 4.93802 166.273 5.18494C166.007 5.43185 165.742 5.55531 165.477 5.67877C165.211 5.80222 164.813 5.92568 164.415 5.92568C164.017 5.92568 163.752 5.80222 163.353 5.67877C163.088 5.55531 162.823 5.43185 162.557 5.18494C162.292 4.93802 162.159 4.69111 162.027 4.44419C161.894 4.19728 161.628 3.8269 161.628 3.57999ZM166.538 29.5061C166.538 29.753 166.538 30.1233 166.406 30.3703C166.273 30.6172 166.14 30.8641 165.875 30.9876C165.609 31.2345 165.477 31.3579 165.211 31.4814C164.946 31.6048 164.68 31.6048 164.282 31.6048C164.017 31.6048 163.619 31.6048 163.353 31.4814C163.088 31.3579 162.823 31.2345 162.69 30.9876C162.425 30.7406 162.292 30.6172 162.159 30.3703C162.027 30.1233 162.027 29.8764 162.027 29.5061V10.9874C162.027 10.3702 162.292 9.87632 162.69 9.50595C163.088 9.13558 163.752 8.88866 164.282 8.88866C164.946 8.88866 165.477 9.13558 165.875 9.50595C166.273 9.87632 166.538 10.3702 166.538 10.9874V29.5061Z" fill="white"/>
<path d="M185.512 13.0865C184.317 13.0865 183.256 13.3334 182.194 13.7038C181.133 14.0741 180.204 14.6914 179.54 15.4322C178.744 16.1729 178.213 17.0371 177.682 18.0248C177.284 19.0124 177.019 20.0001 177.019 21.1112V29.5063C177.019 30.1236 176.754 30.6174 176.355 30.9878C175.957 31.3582 175.427 31.6051 174.763 31.6051C174.1 31.6051 173.569 31.3582 173.038 30.9878C172.64 30.6174 172.375 30.1236 172.375 29.5063V20.9877C172.375 19.2593 172.773 17.7779 173.436 16.2964C174.1 14.8149 175.028 13.5803 176.223 12.4692C177.417 11.3581 178.744 10.4939 180.336 9.87658C181.929 9.25929 183.654 8.88892 185.379 8.88892H185.512C186.308 8.88892 186.839 9.13583 187.237 9.5062C187.635 9.87658 187.9 10.3704 187.9 10.9877C187.9 11.605 187.635 12.0988 187.237 12.4692C186.839 12.8396 186.175 13.0865 185.512 13.0865Z" fill="white"/>
</svg>
