<svg width="132" height="40" viewBox="0 0 132 40" fill="none" xmlns="http://www.w3.org/2000/svg">
<path d="M38.5475 0H0.875965C0.643641 0 0.420822 0.0935732 0.256611 0.26036C0.0922242 0.426968 0 0.653038 0 0.888932V39.1104C0 39.3461 0.0922242 39.5721 0.256611 39.7387C0.420822 39.9055 0.643641 39.9991 0.875965 39.9991H38.5475C38.7799 39.9991 39.0028 39.9055 39.167 39.7387C39.3314 39.5721 39.4236 39.3461 39.4236 39.1104V0.888932C39.4236 0.653038 39.3314 0.426968 39.167 0.26036C39.0028 0.0935732 38.7799 0 38.5475 0ZM26.2823 25.7773C26.2823 26.013 26.1901 26.239 26.0257 26.4058C25.8615 26.5724 25.6387 26.6662 25.4064 26.6662H14.0172C13.7849 26.6662 13.5621 26.5724 13.3977 26.4058C13.2335 26.239 13.1413 26.013 13.1413 25.7773V14.2218C13.1413 13.9861 13.2335 13.7601 13.3977 13.5934C13.5621 13.4267 13.7849 13.3331 14.0172 13.3331H25.4064C25.6387 13.3331 25.8615 13.4267 26.0257 13.5934C26.1901 13.7601 26.2823 13.9861 26.2823 14.2218V25.7773Z" fill="white"/>
<path d="M117.417 13.3345H106.028C105.544 13.3345 105.152 13.7324 105.152 14.2233V25.7787C105.152 26.2696 105.544 26.6676 106.028 26.6676H117.417C117.9 26.6676 118.293 26.2696 118.293 25.7787V14.2233C118.293 13.7324 117.9 13.3345 117.417 13.3345Z" fill="white"/>
<path d="M104.27 0.00107357H92.8811C92.3973 0.00107357 92.005 0.398932 92.005 0.890005V12.4452C92.005 12.9361 92.3973 13.3342 92.8811 13.3342H104.27C104.754 13.3342 105.146 12.9361 105.146 12.4452V0.890005C105.146 0.398932 104.754 0.00107357 104.27 0.00107357Z" fill="white"/>
<path d="M130.553 0.00107357H119.163C118.68 0.00107357 118.287 0.398932 118.287 0.890005V12.4452C118.287 12.9361 118.68 13.3342 119.163 13.3342H130.553C131.036 13.3342 131.429 12.9361 131.429 12.4452V0.890005C131.429 0.398932 131.036 0.00107357 130.553 0.00107357Z" fill="white"/>
<path d="M104.27 26.6669H92.8811C92.3973 26.6669 92.005 27.0648 92.005 27.5557V39.1111C92.005 39.602 92.3973 40 92.8811 40H104.27C104.754 40 105.146 39.602 105.146 39.1111V27.5557C105.146 27.0648 104.754 26.6669 104.27 26.6669Z" fill="white"/>
<path d="M130.553 26.6669H119.163C118.68 26.6669 118.287 27.0648 118.287 27.5557V39.1111C118.287 39.602 118.68 40 119.163 40H130.553C131.036 40 131.429 39.602 131.429 39.1111V27.5557C131.429 27.0648 131.036 26.6669 130.553 26.6669Z" fill="white"/>
<path d="M84.5418 0.00107357H73.1528C72.669 0.00107357 72.2766 0.398932 72.2766 0.890005V12.4452C72.2766 12.9361 72.669 13.3342 73.1528 13.3342H84.5418C85.0256 13.3342 85.4179 12.9361 85.4179 12.4452V0.890005C85.4179 0.398932 85.0256 0.00107357 84.5418 0.00107357Z" fill="white"/>
<path d="M84.5418 26.6669H73.1528C72.669 26.6669 72.2766 27.0648 72.2766 27.5557V39.1111C72.2766 39.602 72.669 40 73.1528 40H84.5418C85.0256 40 85.4179 39.602 85.4179 39.1111V27.5557C85.4179 27.0648 85.0256 26.6669 84.5418 26.6669Z" fill="white"/>
<path d="M72.2766 14.2118C72.2766 13.9761 72.1842 13.7501 72.02 13.5834C71.8556 13.4167 71.6328 13.3231 71.4005 13.3231H59.1354V0.888932C59.1354 0.653038 59.043 0.426968 58.8788 0.26036C58.7144 0.0935732 58.4916 0 58.2592 0H46.8703C46.6378 0 46.415 0.0935732 46.2507 0.26036C46.0864 0.426968 45.9941 0.653038 45.9941 0.888932V39.0904C45.9941 39.3261 46.0864 39.5521 46.2507 39.7187C46.415 39.8855 46.6378 39.9791 46.8703 39.9791H58.2592C58.4916 39.9791 58.7144 39.8855 58.8788 39.7187C59.043 39.5521 59.1354 39.3261 59.1354 39.0904V26.6562H71.4005C71.6328 26.6562 71.8556 26.5624 72.02 26.3958C72.1842 26.229 72.2766 26.003 72.2766 25.7673V14.2118Z" fill="white"/>
</svg>
