<svg width="104" height="104" viewBox="0 0 104 104" fill="none" xmlns="http://www.w3.org/2000/svg">
   <style>
        path {
            fill: #DACFBC ;
        }
        @media (prefers-color-scheme: dark) {
            path { fill: #88949D; }
        }
    </style>
<path fill-rule="evenodd" clip-rule="evenodd" d="M104 0H0V104H104V0ZM36.7039 41H15.4932C15.3624 41 15.2369 41.0527 15.1445 41.1466C15.0519 41.2404 15 41.3677 15 41.5005V63.0208C15 63.1535 15.0519 63.2808 15.1445 63.3746C15.2369 63.4686 15.3624 63.5212 15.4932 63.5212H36.7039C36.8348 63.5212 36.9603 63.4686 37.0527 63.3746C37.1453 63.2808 37.1972 63.1535 37.1972 63.0208V41.5005C37.1972 41.3677 37.1453 41.2404 37.0527 41.1466C36.9603 41.0527 36.8348 41 36.7039 41ZM29.7981 55.5137C29.7981 55.6464 29.7462 55.7737 29.6536 55.8676C29.5612 55.9614 29.4357 56.0142 29.3049 56.0142H22.8923C22.7615 56.0142 22.636 55.9614 22.5435 55.8676C22.451 55.7737 22.3991 55.6464 22.3991 55.5137V49.0075C22.3991 48.8748 22.451 48.7475 22.5435 48.6537C22.636 48.5598 22.7615 48.5071 22.8923 48.5071H29.3049C29.4357 48.5071 29.5612 48.5598 29.6536 48.6537C29.7462 48.7475 29.7981 48.8748 29.7981 49.0075V55.5137ZM81.1107 48.5079H74.6982C74.4258 48.5079 74.2049 48.7319 74.2049 49.0083V55.5145C74.2049 55.7909 74.4258 56.015 74.6982 56.015H81.1107C81.3831 56.015 81.604 55.7909 81.604 55.5145V49.0083C81.604 48.7319 81.3831 48.5079 81.1107 48.5079ZM67.2961 41.0006H73.7086C73.9811 41.0006 74.2019 41.2246 74.2019 41.5011V48.0072C74.2019 48.2836 73.9811 48.5077 73.7086 48.5077H67.2961C67.0237 48.5077 66.8028 48.2836 66.8028 48.0072V41.5011C66.8028 41.2246 67.0237 41.0006 67.2961 41.0006ZM88.5068 41.0006H82.0942C81.8218 41.0006 81.6009 41.2246 81.6009 41.5011V48.0072C81.6009 48.2836 81.8218 48.5077 82.0942 48.5077H88.5068C88.7792 48.5077 89 48.2836 89 48.0072V41.5011C89 41.2246 88.7792 41.0006 88.5068 41.0006ZM67.2961 56.0146H73.7086C73.9811 56.0146 74.2019 56.2386 74.2019 56.515V63.0212C74.2019 63.2976 73.9811 63.5217 73.7086 63.5217H67.2961C67.0237 63.5217 66.8028 63.2976 66.8028 63.0212V56.515C66.8028 56.2386 67.0237 56.0146 67.2961 56.0146ZM88.5068 56.0146H82.0942C81.8218 56.0146 81.6009 56.2386 81.6009 56.515V63.0212C81.6009 63.2976 81.8218 63.5217 82.0942 63.5217H88.5068C88.7792 63.5217 89 63.2976 89 63.0212V56.515C89 56.2386 88.7792 56.0146 88.5068 56.0146ZM56.1882 41.0006H62.6007C62.8731 41.0006 63.094 41.2246 63.094 41.5011V48.0072C63.094 48.2836 62.8731 48.5077 62.6007 48.5077H56.1882C55.9158 48.5077 55.6949 48.2836 55.6949 48.0072V41.5011C55.6949 41.2246 55.9158 41.0006 56.1882 41.0006ZM62.6007 56.0146H56.1882C55.9158 56.0146 55.6949 56.2386 55.6949 56.515V63.0212C55.6949 63.2976 55.9158 63.5217 56.1882 63.5217H62.6007C62.8731 63.5217 63.094 63.2976 63.094 63.0212V56.515C63.094 56.2386 62.8731 56.0146 62.6007 56.0146ZM55.5504 48.6481C55.6429 48.7419 55.6949 48.8692 55.6949 49.0019V55.5081C55.6949 55.6408 55.6429 55.7681 55.5504 55.862C55.4578 55.9558 55.3324 56.0086 55.2016 56.0086H48.2958V63.0096C48.2958 63.1423 48.2438 63.2696 48.1513 63.3634C48.0588 63.4573 47.9333 63.51 47.8025 63.51H41.39C41.2591 63.51 41.1336 63.4573 41.0412 63.3634C40.9486 63.2696 40.8967 63.1423 40.8967 63.0096V41.5005C40.8967 41.3677 40.9486 41.2404 41.0412 41.1466C41.1336 41.0527 41.2591 41 41.39 41H47.8025C47.9333 41 48.0588 41.0527 48.1513 41.1466C48.2438 41.2404 48.2958 41.3677 48.2958 41.5005V48.5015H55.2016C55.3324 48.5015 55.4578 48.5542 55.5504 48.6481Z"/>
</svg>
