<svg width="230" height="44" viewBox="0 0 230 44" fill="none" xmlns="http://www.w3.org/2000/svg">
<path d="M57.6134 19.4047C58.3281 18.9641 58.8913 18.3521 59.3058 17.5657C59.7204 16.7794 59.9269 15.8937 59.9269 14.9089C59.9269 13.924 59.7204 13.0444 59.3058 12.2685C58.8913 11.4942 58.3266 10.8807 57.6134 10.4296C56.8987 9.97853 56.0755 9.75299 55.1439 9.75299C54.2122 9.75299 53.4515 9.97251 52.7368 10.4131C52.0221 10.8536 51.4634 11.4611 51.0592 12.2369C50.6551 13.0128 50.453 13.9029 50.453 14.9089C50.453 15.9148 50.6551 16.8049 51.0592 17.5808C51.4634 18.3566 52.0221 18.9641 52.7368 19.4047C53.4515 19.8452 54.2538 20.0647 55.1439 20.0647C56.0339 20.0647 56.8987 19.8452 57.6134 19.4047ZM46.3832 6.35934H50.2048V8.37117C50.8051 7.61636 51.5718 7.02995 52.5035 6.61044C53.4351 6.19094 54.4812 5.98194 55.6417 5.98194C57.2568 5.98194 58.707 6.37438 59.9908 7.16076C61.2746 7.94715 62.2895 9.01622 63.0354 10.368C63.7813 11.7197 64.1542 13.2338 64.1542 14.9104C64.1542 16.5869 63.7813 18.101 63.0354 19.4528C62.2895 20.8045 61.2746 21.8736 59.9908 22.66C58.707 23.4464 57.2464 23.8388 55.6105 23.8388C54.5748 23.8388 53.612 23.6659 52.7219 23.3201C51.8319 22.9742 51.0756 22.4765 50.4545 21.827V29.7495H46.3847V6.35934H46.3832Z" fill="white"/>
<path d="M71.0769 10.3048C70.3414 10.9228 69.86 11.7979 69.6326 12.9301H77.585C77.5018 11.8821 77.1036 11.028 76.3889 10.368C75.6742 9.70788 74.7782 9.37859 73.7024 9.37859C72.6876 9.37859 71.8124 9.68833 71.0769 10.3063M69.4469 22.6434C68.1423 21.8465 67.1275 20.7684 66.4024 19.4062C65.6772 18.0439 65.3147 16.5343 65.3147 14.8788C65.3147 13.2233 65.6817 11.6355 66.4172 10.3048C67.1527 8.97412 68.1572 7.92159 69.4306 7.14573C70.704 6.36987 72.1274 5.98194 73.7024 5.98194C75.4617 5.98194 76.9535 6.36385 78.1764 7.12919C79.3978 7.89453 80.3309 8.90495 80.9728 10.1635C81.6147 11.4205 81.9357 12.8143 81.9357 14.345C81.9357 14.6593 81.9208 14.969 81.8896 15.2727C81.8584 15.5765 81.8005 15.8441 81.7187 16.0742H69.5405C69.6638 17.3312 70.1408 18.3371 70.9699 19.0919C71.7976 19.8467 72.8228 20.2241 74.0457 20.2241C74.9773 20.2241 75.7693 20.0196 76.4216 19.6106C77.0739 19.2017 77.5865 18.6724 77.9595 18.0228L81.2522 19.6573C80.7336 20.8722 79.8272 21.8736 78.5345 22.66C77.2403 23.4464 75.7336 23.8388 74.0145 23.8388C72.2953 23.8388 70.753 23.4403 69.4484 22.6449" fill="white"/>
<path d="M95.1124 19.4047C95.8271 18.9641 96.3902 18.3521 96.8048 17.5657C97.2194 16.7794 97.4259 15.8937 97.4259 14.9089C97.4259 13.924 97.2194 13.0444 96.8048 12.2685C96.3902 11.4942 95.8256 10.8807 95.1124 10.4296C94.3977 9.97853 93.5745 9.75299 92.6429 9.75299C91.7112 9.75299 90.9504 9.97251 90.2357 10.4131C89.521 10.8536 88.9624 11.4611 88.5582 12.2369C88.154 13.0128 87.952 13.9029 87.952 14.9089C87.952 15.9148 88.154 16.8049 88.5582 17.5808C88.9624 18.3566 89.521 18.9641 90.2357 19.4047C90.9504 19.8452 91.7528 20.0647 92.6429 20.0647C93.5329 20.0647 94.3977 19.8452 95.1124 19.4047ZM83.8822 6.35934H87.7038V8.37117C88.3041 7.61636 89.0708 7.02995 90.0025 6.61044C90.9341 6.19094 91.9802 5.98194 93.1406 5.98194C94.7558 5.98194 96.206 6.37438 97.4898 7.16076C98.7736 7.94715 99.7884 9.01622 100.534 10.368C101.28 11.7197 101.653 13.2338 101.653 14.9104C101.653 16.5869 101.28 18.101 100.534 19.4528C99.7884 20.8045 98.7736 21.8736 97.4898 22.66C96.2045 23.4464 94.7454 23.8388 93.1094 23.8388C92.0738 23.8388 91.1109 23.6659 90.2209 23.3201C89.3309 22.9742 88.5745 22.4765 87.9534 21.827V29.7495H83.8836V6.35934H83.8822Z" fill="white"/>
<path d="M114.842 19.4047C115.557 18.9641 116.12 18.3521 116.534 17.5657C116.949 16.7794 117.155 15.8937 117.155 14.9089C117.155 13.924 116.949 13.0444 116.534 12.2685C116.12 11.4942 115.555 10.8807 114.842 10.4296C114.127 9.97853 113.304 9.75299 112.372 9.75299C111.441 9.75299 110.68 9.97251 109.965 10.4131C109.25 10.8536 108.692 11.4611 108.288 12.2369C107.883 13.0128 107.681 13.9029 107.681 14.9089C107.681 15.9148 107.883 16.8049 108.288 17.5808C108.692 18.3566 109.25 18.9641 109.965 19.4047C110.68 19.8452 111.482 20.0647 112.372 20.0647C113.262 20.0647 114.127 19.8452 114.842 19.4047ZM103.612 6.35934H107.433V8.37117C108.034 7.61636 108.8 7.02995 109.732 6.61044C110.664 6.19094 111.71 5.98194 112.87 5.98194C114.485 5.98194 115.935 6.37438 117.219 7.16076C118.503 7.94715 119.518 9.01622 120.264 10.368C121.01 11.7197 121.383 13.2338 121.383 14.9104C121.383 16.5869 121.01 18.101 120.264 19.4528C119.518 20.8045 118.503 21.8736 117.219 22.66C115.934 23.4464 114.475 23.8388 112.839 23.8388C111.803 23.8388 110.84 23.6659 109.95 23.3201C109.06 22.9742 108.304 22.4765 107.683 21.827V29.7495H103.613V6.35934H103.612Z" fill="white"/>
<path d="M128.305 10.3048C127.57 10.9228 127.088 11.7979 126.861 12.9301H134.813C134.73 11.8821 134.332 11.028 133.617 10.368C132.903 9.70788 132.007 9.37859 130.931 9.37859C129.916 9.37859 129.041 9.68833 128.305 10.3063M126.675 22.6434C125.371 21.8465 124.356 20.7684 123.631 19.4062C122.906 18.0439 122.543 16.5343 122.543 14.8788C122.543 13.2233 122.91 11.6355 123.646 10.3048C124.381 8.97412 125.386 7.92159 126.659 7.14573C127.932 6.36987 129.356 5.98194 130.931 5.98194C132.69 5.98194 134.182 6.36385 135.405 7.12919C136.626 7.89453 137.558 8.90495 138.201 10.1635C138.843 11.4205 139.164 12.8143 139.164 14.345C139.164 14.6593 139.149 14.969 139.118 15.2727C139.087 15.5765 139.029 15.8441 138.947 16.0742H126.769C126.892 17.3312 127.369 18.3371 128.198 19.0919C129.026 19.8467 130.051 20.2241 131.274 20.2241C132.206 20.2241 132.998 20.0196 133.65 19.6106C134.302 19.2017 134.815 18.6724 135.188 18.0228L138.481 19.6573C137.962 20.8722 137.056 21.8736 135.763 22.66C134.469 23.4464 132.962 23.8388 131.243 23.8388C129.524 23.8388 127.981 23.4403 126.677 22.6449" fill="white"/>
<path d="M141.111 6.35934H144.932V8.78015C145.368 7.79529 145.978 7.11415 146.766 6.73675C147.553 6.35934 148.464 6.17139 149.5 6.17139H150.494V9.81764H149.033C147.894 9.81764 146.968 10.1785 146.253 10.9017C145.538 11.625 145.182 12.6354 145.182 13.936V23.4614H141.112V6.35934H141.111Z" fill="white"/>
<path d="M153.298 22.5171C151.962 21.6375 151.045 20.4632 150.549 18.9957L153.593 17.5176C154.05 18.4814 154.66 19.2362 155.427 19.7806C156.194 20.3264 157.053 20.5985 158.005 20.5985C158.73 20.5985 159.314 20.4361 159.76 20.1113C160.204 19.7866 160.427 19.3415 160.427 18.7746C160.427 18.2935 160.235 17.9101 159.852 17.6274C159.469 17.3447 159.008 17.1297 158.47 16.9823L155.705 16.196C154.275 15.7764 153.194 15.1374 152.458 14.2789C151.723 13.4203 151.356 12.4038 151.356 11.2295C151.356 10.1815 151.62 9.26431 152.148 8.47943C152.675 7.69304 153.411 7.08107 154.353 6.64052C155.295 6.19996 156.376 5.98043 157.599 5.98043C159.194 5.98043 160.602 6.37287 161.824 7.15926C163.045 7.94565 163.916 9.02975 164.433 10.4131L161.326 11.8911C161.057 11.1153 160.576 10.4973 159.882 10.0357C159.188 9.57406 158.417 9.344 157.568 9.344C156.885 9.344 156.345 9.50188 155.953 9.81614C155.559 10.1304 155.363 10.5394 155.363 11.0416C155.363 11.5438 155.549 11.9016 155.922 12.1738C156.295 12.4459 156.77 12.667 157.351 12.8339L160.054 13.6518C161.463 14.0503 162.54 14.6788 163.284 15.5389C164.03 16.3974 164.403 17.4244 164.403 18.6198C164.403 19.6467 164.134 20.5534 163.595 21.3383C163.057 22.1247 162.311 22.7366 161.359 23.1772C160.406 23.6178 159.287 23.8373 158.003 23.8373C156.201 23.8373 154.634 23.3967 153.298 22.5171Z" fill="white"/>
<path d="M169.781 22.045C168.734 20.9759 168.211 19.4889 168.211 17.5808V10.0357H165.292V6.35784H165.602C166.43 6.35784 167.073 6.13831 167.528 5.69775C167.983 5.2572 168.211 4.61816 168.211 3.78065V1.24707H172.281V6.35934H176.164V10.0372H172.281V17.3612C172.281 18.2198 172.509 18.8814 172.965 19.3415C173.419 19.8031 174.144 20.0332 175.139 20.0332C175.47 20.0332 175.832 20.0016 176.226 19.9384V23.4599C175.936 23.502 175.605 23.5441 175.232 23.5862C174.859 23.6283 174.517 23.6493 174.207 23.6493C172.301 23.6493 170.825 23.1156 169.781 22.0465" fill="white"/>
<path d="M188.188 19.4047C188.881 18.9641 189.43 18.3521 189.834 17.5657C190.238 16.7794 190.44 15.8952 190.44 14.9089C190.44 13.9225 190.238 13.0444 189.834 12.2685C189.43 11.4927 188.881 10.8807 188.188 10.4296C187.494 9.97853 186.691 9.75299 185.78 9.75299C184.87 9.75299 184.057 9.97853 183.342 10.4296C182.627 10.8807 182.069 11.4942 181.664 12.2685C181.26 13.0444 181.058 13.924 181.058 14.9089C181.058 15.8937 181.26 16.7794 181.664 17.5657C182.069 18.3521 182.627 18.9641 183.342 19.4047C184.057 19.8452 184.87 20.0647 185.78 20.0647C186.691 20.0647 187.494 19.8452 188.188 19.4047ZM181.259 22.675C179.902 21.8991 178.825 20.8406 178.029 19.4994C177.231 18.1582 176.832 16.6275 176.832 14.9104C176.832 13.1932 177.231 11.6626 178.029 10.3214C178.826 8.98013 179.898 7.92159 181.244 7.14573C182.59 6.36987 184.101 5.98194 185.779 5.98194C187.456 5.98194 188.936 6.36987 190.284 7.14573C191.63 7.92159 192.702 8.98013 193.499 10.3214C194.296 11.6626 194.696 13.1932 194.696 14.9104C194.696 16.6275 194.291 18.1642 193.485 19.5159C192.676 20.8677 191.601 21.9262 190.254 22.6915C188.908 23.4569 187.416 23.8388 185.78 23.8388C184.144 23.8388 182.617 23.4509 181.26 22.675" fill="white"/>
<path d="M196.642 6.35934H200.464V8.4659C200.918 7.64793 201.566 7.02995 202.406 6.61044C203.244 6.19094 204.192 5.98194 205.248 5.98194C206.49 5.98194 207.594 6.25409 208.557 6.79839C209.52 7.3442 210.271 8.10353 210.81 9.07787C211.348 10.0522 211.618 11.1799 211.618 12.458V23.4599H207.548V13.4323C207.548 12.3001 207.232 11.4039 206.6 10.7439C205.969 10.0838 205.146 9.75299 204.131 9.75299C203.116 9.75299 202.293 10.0883 201.661 10.7589C201.03 11.4295 200.713 12.3196 200.713 13.4308V23.4584H196.644V6.35934H196.642Z" fill="white"/>
<path d="M219.143 10.3048C218.407 10.9228 217.926 11.7979 217.698 12.9301H225.651C225.568 11.8821 225.169 11.028 224.455 10.368C223.74 9.70788 222.844 9.37859 221.768 9.37859C220.753 9.37859 219.878 9.68833 219.143 10.3063M217.511 22.6434C216.207 21.8465 215.192 20.7684 214.467 19.4062C213.742 18.0439 213.379 16.5343 213.379 14.8788C213.379 13.2233 213.746 11.6355 214.481 10.3048C215.217 8.97412 216.221 7.92159 217.495 7.14573C218.768 6.36987 220.192 5.98194 221.767 5.98194C223.526 5.98194 225.018 6.36385 226.241 7.12919C227.462 7.89453 228.395 8.90495 229.037 10.1635C229.679 11.4205 230 12.8143 230 14.345C230 14.6593 229.985 14.969 229.954 15.2727C229.923 15.5765 229.865 15.8441 229.783 16.0742H217.605C217.73 17.3312 218.205 18.3371 219.034 19.0919C219.862 19.8467 220.887 20.2241 222.11 20.2241C223.042 20.2241 223.834 20.0196 224.486 19.6106C225.138 19.2017 225.651 18.6724 226.024 18.0228L229.316 19.6573C228.798 20.8722 227.892 21.8736 226.597 22.66C225.303 23.4464 223.796 23.8388 222.077 23.8388C220.358 23.8388 218.816 23.4403 217.511 22.6449" fill="white"/>
<path d="M155.409 30.5308C156.354 30.5308 157.2 30.6883 157.947 31.0036C158.705 31.3189 159.347 31.739 159.872 32.2645C160.397 32.79 160.771 33.3743 160.992 34.0166L158.594 35.1724C158.372 34.5419 157.982 34.0221 157.422 33.6134C156.873 33.193 156.202 32.9829 155.409 32.9829C154.639 32.983 153.962 33.1635 153.379 33.5254C152.796 33.8874 152.341 34.3898 152.014 35.0319C151.699 35.6625 151.542 36.4044 151.542 37.2568C151.542 38.1092 151.699 38.8567 152.014 39.4989C152.341 40.141 152.796 40.6434 153.379 41.0054C153.962 41.3673 154.639 41.5478 155.409 41.5479C156.202 41.5479 156.873 41.3432 157.422 40.9345C157.982 40.5142 158.372 39.9888 158.594 39.3584L160.992 40.5142C160.771 41.1565 160.397 41.7408 159.872 42.2663C159.347 42.7917 158.705 43.2119 157.947 43.5272C157.2 43.8425 156.354 44 155.409 44C154.476 44 153.606 43.8304 152.801 43.4918C152.008 43.1531 151.314 42.6803 150.719 42.0732C150.124 41.4661 149.657 40.7536 149.319 39.9363C148.992 39.1191 148.829 38.2258 148.829 37.2568C148.829 36.2876 148.992 35.3936 149.319 34.5762C149.645 33.7472 150.107 33.0347 150.702 32.4392C151.297 31.8321 151.991 31.3647 152.784 31.0378C153.589 30.6993 154.464 30.5308 155.409 30.5308Z" fill="white"/>
<path fill-rule="evenodd" clip-rule="evenodd" d="M223.01 30.5308C224.001 30.5308 224.917 30.6994 225.757 31.0378C226.597 31.3764 227.326 31.8504 227.944 32.4576C228.574 33.0648 229.059 33.7771 229.397 34.5945C229.747 35.4119 229.922 36.2994 229.922 37.2568C229.922 38.2143 229.747 39.1018 229.397 39.9192C229.047 40.7365 228.557 41.4544 227.927 42.0732C227.309 42.6805 226.58 43.1531 225.74 43.4918C224.9 43.8304 223.99 44 223.01 44C222.03 44 221.119 43.8304 220.279 43.4918C219.44 43.1531 218.705 42.6803 218.075 42.0732C217.457 41.4544 216.972 40.7365 216.622 39.9192C216.272 39.1018 216.097 38.2143 216.097 37.2568C216.097 36.2994 216.267 35.4119 216.605 34.5945C216.955 33.7771 217.439 33.0648 218.058 32.4576C218.688 31.8504 219.422 31.3764 220.262 31.0378C221.102 30.6992 222.019 30.5308 223.01 30.5308ZM223.01 32.9829C222.415 32.9829 221.861 33.088 221.348 33.2982C220.846 33.4967 220.402 33.7889 220.017 34.1742C219.632 34.5595 219.335 35.0149 219.125 35.5402C218.915 36.0539 218.81 36.6264 218.81 37.2568C218.81 37.8873 218.915 38.4652 219.125 38.9906C219.335 39.5159 219.632 39.9713 220.017 40.3566C220.402 40.7303 220.846 41.0224 221.348 41.2326C221.861 41.4428 222.415 41.5479 223.01 41.5479C223.605 41.5478 224.153 41.4427 224.654 41.2326C225.168 41.0224 225.617 40.7303 226.002 40.3566C226.387 39.9713 226.684 39.516 226.894 38.9906C227.104 38.4652 227.209 37.8873 227.209 37.2568C227.209 36.6263 227.104 36.054 226.894 35.5402C226.684 35.0148 226.387 34.5595 226.002 34.1742C225.617 33.7889 225.168 33.4967 224.654 33.2982C224.153 33.0881 223.605 32.983 223.01 32.9829Z" fill="white"/>
<path fill-rule="evenodd" clip-rule="evenodd" d="M169.719 30.7409C170.618 30.7409 171.411 30.8985 172.1 31.2138C172.799 31.529 173.348 31.9963 173.745 32.6152C174.142 33.234 174.34 33.9992 174.34 34.9097C174.339 35.797 174.135 36.5555 173.727 37.186C173.319 37.8047 172.771 38.2721 172.082 38.5874L175.057 43.7899H172.012L169.369 39.0602H167.445V43.7899H164.733V30.7409H169.719ZM167.445 36.696H169.737C170.122 36.696 170.455 36.6205 170.735 36.4688C171.015 36.3171 171.23 36.1066 171.382 35.8383C171.545 35.5698 171.627 35.2599 171.627 34.9097C171.627 34.5479 171.545 34.2326 171.382 33.9641C171.23 33.6955 171.015 33.4842 170.735 33.3324C170.455 33.1806 170.122 33.1052 169.737 33.1051H167.445V36.696Z" fill="white"/>
<path d="M182.965 35.3044L185.548 30.7409H188.646L184.324 38.0803V43.7899H181.611V38.0975L177.272 30.7409H180.369L182.965 35.3044Z" fill="white"/>
<path fill-rule="evenodd" clip-rule="evenodd" d="M196.997 30.7409C197.895 30.741 198.688 30.8986 199.376 31.2138C200.076 31.529 200.625 31.9963 201.022 32.6152C201.418 33.234 201.616 33.9991 201.616 34.9097C201.616 35.7969 201.413 36.5501 201.005 37.1689C200.608 37.7877 200.059 38.2604 199.359 38.5874C198.671 38.9026 197.883 39.0602 196.997 39.0602H194.705V43.7899H191.992V30.7409H196.997ZM194.705 36.696H197.014C197.399 36.696 197.731 36.6205 198.011 36.4688C198.291 36.317 198.508 36.1068 198.66 35.8383C198.823 35.5698 198.904 35.2599 198.904 34.9097C198.904 34.548 198.823 34.2325 198.66 33.9641C198.508 33.6955 198.291 33.4842 198.011 33.3324C197.732 33.1807 197.399 33.1051 197.014 33.1051H194.705V36.696Z" fill="white"/>
<path d="M213.669 33.1051H210.414V43.7899H207.701V33.1051H204.394V30.7409H213.669V33.1051Z" fill="white"/>
<path d="M7.57422 0.00976562C14.469 0.195461 27.299 2.96982 33.9619 6.55664L34.5869 6.9043C41.0413 10.659 40.5112 15.219 37.0664 20.8496C33.6201 26.4817 27.2603 33.1864 21.2412 35.2754C15.2206 37.3643 9.54234 34.8344 5.87012 29.0107C2.19798 23.1872 0.531903 14.0698 0.0966797 8.22754C-0.338497 2.38683 0.457169 -0.181834 7.57422 0.00976562ZM8.73535 6.55176L7.0498 11.2168H21.9502V11.2197C23.8494 11.2523 25.3787 12.8175 25.3789 14.7471C25.3789 16.6769 23.8496 18.2428 21.9502 18.2754V18.2871H17.4229V13.623H12.8125V30.5703H17.4229V22.9512L21.9502 22.9541C26.4362 22.9539 30.0713 19.3101 30.0713 14.7705C30.0712 10.231 26.4346 6.55192 21.9502 6.55176H8.73535Z" fill="white"/>
</svg>
