<svg width="96" height="40" viewBox="0 0 96 40" fill="none" xmlns="http://www.w3.org/2000/svg">
<path fill-rule="evenodd" clip-rule="evenodd" d="M23.0928 28.5286V1.61194C23.0928 1.12463 23.3552 0.749756 23.9175 0.449829C24.4798 0.149902 25.2296 0 26.1293 0C26.9915 0 27.7038 0.149902 28.3036 0.449829C28.9035 0.749756 29.2034 1.12463 29.2034 1.61194V28.5286C29.2034 28.9409 28.9035 29.3158 28.2662 29.6532C27.6288 29.9906 26.9166 30.1781 26.1293 30.1781C25.2671 30.1781 24.5548 30.0281 23.9925 29.6908C23.3927 29.3534 23.0928 28.9785 23.0928 28.5286ZM0 38.1256V11.0591C0 10.5342 0.262421 10.0844 0.824738 9.78442C1.38705 9.44702 2.06186 9.29712 2.8866 9.29712C3.71133 9.29712 4.38614 9.44702 4.91098 9.78442C5.43579 10.1218 5.69821 10.5342 5.69821 11.0591V12.3711C6.29803 11.434 7.16028 10.6091 8.28491 9.97192C9.40958 9.33459 10.6842 8.99719 12.1087 8.99719C14.4705 8.99719 16.4948 9.85938 18.1068 11.6213C19.7563 13.3833 20.5811 15.4827 20.5811 17.9569V21.5558C20.5811 23.9175 19.7563 26.0168 18.0694 27.8538C16.3824 29.6532 14.4705 30.5905 12.2962 30.5905C10.9466 30.5905 9.672 30.2531 8.54733 29.5408C7.38519 28.8285 6.56046 28.0413 6.1106 27.0665V38.0881C6.1106 38.538 5.8107 38.9878 5.1734 39.3627C4.53607 39.7375 3.82382 39.925 2.96158 39.925C2.09933 39.925 1.38705 39.7375 0.824738 39.3627C0.299896 38.9878 0 38.5754 0 38.1256ZM6.1106 22.343C6.1106 22.9429 6.52298 23.6177 7.38519 24.4049C8.24744 25.1921 9.18463 25.567 10.2718 25.567C11.3589 25.567 12.3336 25.1547 13.1959 24.33C14.0581 23.5051 14.4705 22.568 14.4705 21.5558V17.9944C14.4705 16.9822 14.0581 16.0825 13.1959 15.2577C12.3336 14.4705 11.3215 14.0581 10.1593 14.0581C9.07217 14.0581 8.13495 14.433 7.31021 15.1453C6.48547 15.8575 6.07312 16.8323 6.07312 17.9944L6.1106 22.343ZM55.8201 34.9016C54.7704 34.9016 54.2456 35.7263 54.2456 37.3759C54.2456 38.3881 54.4706 39.0627 55.0329 39.4752C55.4827 39.8126 56.195 40 57.0947 40C58.1444 40 59.0816 39.8876 59.9813 39.7001C60.881 39.4752 61.5933 39.2877 62.2306 39.0253C62.8304 38.7629 63.4302 38.3881 64.0301 37.8257C64.6299 37.2633 65.0797 36.8135 65.4171 36.4386C65.7545 36.0637 66.1294 35.4639 66.5418 34.6766C66.8636 34.0867 67.0894 33.6118 67.2606 33.2521L67.2617 33.2499C67.3293 33.1074 67.3884 32.9833 67.4415 32.8772C67.6289 32.5023 67.8914 31.8275 68.2662 30.8154L69.0535 28.866L75.9514 12.5211C76.0638 12.2961 76.1013 12.0712 76.1013 11.8463C76.1013 11.0966 75.614 10.4592 74.6393 9.89685C73.6646 9.33459 72.7648 9.03467 71.9401 9.03467C71.0779 9.03467 70.553 9.37207 70.3281 10.0094L65.7545 23.0553L60.0938 10.0094C59.8689 9.33459 59.269 9.03467 58.3318 9.03467C57.4696 9.03467 56.6074 9.29712 55.6702 9.85938C54.7329 10.4218 54.2831 11.0216 54.2831 11.7339C54.2831 11.9587 54.3581 12.1837 54.4706 12.4836L62.6055 28.5286C62.4181 30.8154 61.6308 32.4648 60.2062 33.4396C58.7442 34.4143 57.2822 34.9016 55.8201 34.9016ZM76.5884 24.5548C76.5884 22.2306 77.5256 20.6185 79.4375 19.6814C81.3119 18.7441 84.0486 18.2568 87.6099 18.2568H89.5593V17.657C89.5593 16.5323 89.2219 15.5576 88.5471 14.7329C87.8723 13.9082 86.8227 13.4958 85.3981 13.4958C83.9736 13.4958 82.774 13.7582 81.7618 14.2456C80.7496 14.7329 80.1873 14.9954 79.9998 14.9954C79.3625 14.9954 78.8752 14.6954 78.5003 14.0956C78.1254 13.4958 77.938 12.8585 77.938 12.1462C77.938 11.2839 78.7627 10.5717 80.3747 9.93445C81.9867 9.29712 83.7112 8.99719 85.5106 8.99719C88.9595 8.99719 91.5087 9.8219 93.1957 11.434C94.8827 13.0834 95.7074 15.1078 95.7074 17.582V28.3787C95.7074 28.866 95.4075 29.3158 94.8452 29.6532C94.2829 29.9906 93.5706 30.1781 92.7083 30.1781C91.9211 30.1781 91.2463 29.9906 90.7215 29.6157C90.1966 29.2408 89.9342 28.791 89.9342 28.2662V26.9166C87.7599 29.3909 85.3606 30.5905 82.7365 30.5905C80.937 30.5905 79.475 30.0657 78.3128 29.0535C77.1507 28.0413 76.5884 26.5043 76.5884 24.5548ZM82.6615 23.8425C82.6615 24.5923 82.8864 25.1547 83.3363 25.5295C83.7861 25.9044 84.386 26.0919 85.1357 26.0919C86.1479 26.0919 87.1226 25.6794 88.0598 24.8547C88.997 24.03 89.4843 23.0928 89.4843 22.118V21.2184H88.7721C86.8602 21.2184 85.3607 21.4058 84.2735 21.7432C83.2238 22.0806 82.6615 22.7928 82.6615 23.8425ZM51.321 22.5305C52.4457 21.8932 52.8581 20.9185 52.7831 19.9437C52.8581 19.0066 52.4457 18.0319 51.321 17.3571C49.3096 16.2291 47.3076 15.1012 45.3055 13.9733C43.3151 12.8519 41.3246 11.7306 39.3248 10.6091C37.3379 9.52197 34.8262 10.9091 34.8262 13.1959V26.6917C34.8262 28.9785 37.3379 30.403 39.3248 29.2783C41.3304 28.1537 43.3267 27.0291 45.3229 25.9044C47.3192 24.7798 49.3154 23.6552 51.321 22.5305Z" fill="white"/>
</svg>
